<svg xmlns="http://www.w3.org/2000/svg" enable-background="new 0 0 64 64" viewBox="0 0 64 64"><path fill="#00aeef" d="M49.266,9.607H43.5c-0.641,0-1.211,0.408-1.419,1.015L35.013,31.27
			c-0.767,2.25-1.586,4.677-2.378,7.171c-0.132,0.415-0.518,0.697-0.953,0.697c-0.003,0-0.007,0-0.01,0
			c-0.439-0.005-0.825-0.295-0.949-0.717c-0.593-2.005-1.298-4.286-2.22-7.182l-6.511-20.584c-0.198-0.627-0.773-1.048-1.43-1.048
			h-5.827c-0.479,0-0.933,0.231-1.213,0.619c-0.282,0.388-0.361,0.891-0.213,1.347l13.64,41.784
			c0.202,0.619,0.774,1.035,1.425,1.035h5.952c0.632,0,1.199-0.399,1.412-0.995l14.941-41.785c0.164-0.459,0.094-0.971-0.186-1.367
			C50.211,9.845,49.753,9.607,49.266,9.607z"/><path d="M52.127,9.093c-0.654-0.93-1.724-1.485-2.862-1.485H43.5c-1.495,0-2.826,0.951-3.312,2.366L33.12,30.623
			c-0.455,1.336-0.929,2.733-1.404,4.172c-0.385-1.248-0.815-2.618-1.307-4.161l-6.51-20.582c-0.463-1.462-1.804-2.444-3.337-2.444
			h-5.827c-1.118,0-2.178,0.54-2.833,1.444c-0.657,0.903-0.842,2.078-0.495,3.142l13.64,41.784c0.47,1.444,1.807,2.415,3.327,2.415
			h5.952c1.475,0,2.799-0.933,3.295-2.321l14.942-41.786C52.945,11.214,52.782,10.02,52.127,9.093z M50.679,11.612L35.737,53.397
			c-0.213,0.596-0.78,0.995-1.412,0.995h-5.952c-0.651,0-1.224-0.416-1.425-1.035l-13.64-41.784
			c-0.148-0.456-0.069-0.959,0.213-1.347c0.28-0.388,0.734-0.619,1.213-0.619h5.827c0.657,0,1.232,0.421,1.43,1.048l6.511,20.584
			c0.922,2.896,1.627,5.177,2.22,7.182c0.125,0.422,0.51,0.712,0.949,0.717c0.003,0,0.006,0,0.01,0c0.436,0,0.821-0.282,0.953-0.697
			c0.792-2.494,1.611-4.921,2.378-7.171l7.068-20.647c0.208-0.606,0.779-1.015,1.419-1.015h5.766c0.488,0,0.946,0.237,1.227,0.638
			C50.773,10.642,50.842,11.153,50.679,11.612z"/></svg>