<svg xmlns="http://www.w3.org/2000/svg" viewBox="0 0 64 64"><path fill="#00aeef" d="M49.266 9.607H43.5a1.5 1.5 0 0 0-1.419 1.015L35.013 31.27a358.304 358.304 0 0 0-2.378 7.171 1 1 0 0 1-.953.697h-.01a1 1 0 0 1-.949-.717 364.642 364.642 0 0 0-2.22-7.182l-6.511-20.584a1.494 1.494 0 0 0-1.43-1.048h-5.827a1.5 1.5 0 0 0-1.426 1.966l13.64 41.784a1.495 1.495 0 0 0 1.425 1.035h5.952c.632 0 1.199-.399 1.412-.995l14.941-41.785a1.499 1.499 0 0 0-1.413-2.005z"/><path d="M52.127 9.093a3.502 3.502 0 0 0-2.862-1.485H43.5a3.503 3.503 0 0 0-3.312 2.366L33.12 30.623a464.639 464.639 0 0 0-1.404 4.172 462.178 462.178 0 0 0-1.307-4.161l-6.51-20.582a3.487 3.487 0 0 0-3.337-2.444h-5.827c-1.118 0-2.178.54-2.833 1.444a3.507 3.507 0 0 0-.495 3.142l13.64 41.784a3.49 3.49 0 0 0 3.327 2.415h5.952a3.506 3.506 0 0 0 3.295-2.321l14.942-41.786a3.502 3.502 0 0 0-.436-3.193zm-1.448 2.519L35.737 53.397c-.213.596-.78.995-1.412.995h-5.952a1.495 1.495 0 0 1-1.425-1.035l-13.64-41.784a1.5 1.5 0 0 1 1.426-1.966h5.827c.657 0 1.232.421 1.43 1.048l6.511 20.584a364.642 364.642 0 0 1 2.22 7.182c.125.422.51.712.949.717h.01a1 1 0 0 0 .953-.697 358.304 358.304 0 0 1 2.378-7.171l7.068-20.647a1.503 1.503 0 0 1 1.419-1.015h5.766c.488 0 .946.237 1.227.638.281.396.35.907.187 1.366z"/></svg>