<svg xmlns="http://www.w3.org/2000/svg" width="200" height="200" style="border: 1px solid black; border-radius: 4px;">

    <!-- pie chart -->
    <!-- M: coordinates of the starting point of the path -->
    <!-- L: coordinate of the end point of a straight line -->
    <!-- A: the radii length, flags and end point of an arc -->
    <!-- Z: return to start point (M) -->

    <!-- green (strong: 96ff2D, weak: ccff99, grey: 969696) -->
    <!-- orange (strong: ffc61a, weak: ffdf80, grey: a0a0a0) -->
    <!-- red (strong: ff2e2e, weak: ff9999), grey: 737373 -->

    <path d="M44,42 L44,6 A36,36 0 0,1 75.2,60 L44,42, Z" fill="#96ff2d" stroke="#333" stroke-width="1"></path>
    <path d="M44,42 L75.2,60 A36,36 0 0,1 12.8,60 L44,42, Z" fill="#ffc61a" stroke="#333" stroke-width="1"></path>
    <path d="M44,42 L12.8,60 A36,36 0 0,1 44,6 L44,42, Z" fill="#ff2e2e" stroke="#333" stroke-width="1"></path>

    <!-- word list -->
    <rect x="90" y="14" width="96" height="60" rx="2" ry="2" fill="#eeeeee" stroke="black" stroke-width="1"></rect>

    <!-- top wavy lines -->
    <path d="M100,28 Q105,24 105,28 T110,28" fill="none" stroke="black" stroke-width="1"></path>
    <path d="M110,28 Q115,24 115,28 T120,28" fill="none" stroke="black" stroke-width="1"></path>
    <path d="M120,28 Q125,24 125,28 T130,28" fill="none" stroke="black" stroke-width="1"></path>

    <path d="M146,28 Q151,24 151,28 T156,28" fill="none" stroke="black" stroke-width="1"></path>
    <path d="M156,28 Q161,24 161,28 T166,28" fill="none" stroke="black" stroke-width="1"></path>
    <path d="M166,28 Q171,24 171,28 T176,28" fill="none" stroke="black" stroke-width="1"></path>

    <!-- middle wavy lines -->
    <path d="M100,44 Q105,40 105,44 T110,44" fill="none" stroke="black" stroke-width="1"></path>
    <path d="M110,44 Q115,40 115,44 T120,44" fill="none" stroke="black" stroke-width="1"></path>
    <path d="M120,44 Q125,40 125,44 T130,44" fill="none" stroke="black" stroke-width="1"></path>

    <path d="M146,44 Q151,40 151,44 T156,44" fill="none" stroke="black" stroke-width="1"></path>
    <path d="M156,44 Q161,40 161,44 T166,44" fill="none" stroke="black" stroke-width="1"></path>
    <path d="M166,44 Q171,40 171,44 T176,44" fill="none" stroke="black" stroke-width="1"></path>

    <!-- bottom wavy lines -->
    <path d="M100,60 Q105,56 105,60 T110,60" fill="none" stroke="black" stroke-width="1"></path>
    <path d="M110,60 Q115,56 115,60 T120,60" fill="none" stroke="black" stroke-width="1"></path>
    <path d="M120,60 Q125,56 125,60 T130,60" fill="none" stroke="black" stroke-width="1"></path>

    <path d="M146,60 Q151,56 151,60 T156,60" fill="none" stroke="black" stroke-width="1"></path>
    <path d="M156,60 Q161,56 161,60 T166,60" fill="none" stroke="black" stroke-width="1"></path>
    <path d="M166,60 Q171,56 171,60 T176,60" fill="none" stroke="black" stroke-width="1"></path>

    <!-- games -->
    <rect x="9%" y="42.5%" width="25%" height="25%" fill="#bbddff" rx="4" ry="4" stroke="black" stroke-width="1"></rect>
    <rect x="36.5%" y="42.5%" width="25%" height="25%" fill="#99ccff" rx="4" ry="4" stroke="black" stroke-width="1"></rect>
    <rect x="64%" y="42.5%" width="25%" height="25%" fill="#77aaff" rx="4" ry="4" stroke="black" stroke-width="1"></rect>
    <rect x="9%" y="70%" width="25%" height="25%" fill="#5588ff" rx="4" ry="4" stroke="black" stroke-width="1"></rect>
    <rect x="36.5%" y="70%" width="25%" height="25%" fill="#3366ff" rx="4" ry="4" stroke="black" stroke-width="1"></rect>
    <rect x="64%" y="70%" width="25%" height="25%" fill="#1144ff" rx="4" ry="4" stroke="black" stroke-width="1"></rect>
</svg>