<svg xmlns="http://www.w3.org/2000/svg"  viewBox="0 0 100 100" width="512px" height="512px"><path d="M91.912,13.968c-2.526-3.828-6.571-5.936-11.39-5.936c-3.735,0-6.875,1.046-9.33,3.108 c-2.06,1.729-3.719,4.094-4.901,6.961L52.273,50.73L38.263,18.19c-1.258-2.91-2.859-5.242-4.761-6.934 c-2.41-2.14-5.629-3.225-9.565-3.225c-6.353,0-9.877,3.161-11.715,5.813c-1.902,2.745-3.559,7.396-0.639,13.98l25.656,57.166 c1.358,3.146,3.251,5.594,5.625,7.276c2.509,1.777,5.574,2.679,9.11,2.679c3.659,0,6.766-0.932,9.236-2.771 c2.19-1.632,4.018-3.999,5.462-7.1l25.706-57.278C95.251,21.313,93.712,16.699,91.912,13.968z" opacity=".35"/><path fill="#f2f2f2" d="M89.912,11.968c-2.526-3.828-6.571-5.936-11.39-5.936c-3.735,0-6.875,1.046-9.33,3.108 c-2.06,1.729-3.719,4.094-4.901,6.961L50.273,48.73L36.263,16.19c-1.258-2.91-2.859-5.242-4.761-6.934 c-2.41-2.14-5.629-3.225-9.565-3.225c-6.353,0-9.877,3.161-11.715,5.813c-1.902,2.745-3.559,7.396-0.639,13.98l25.656,57.166 c1.358,3.146,3.251,5.594,5.625,7.276c2.509,1.777,5.574,2.679,9.11,2.679c3.659,0,6.766-0.932,9.236-2.771 c2.19-1.632,4.018-3.999,5.462-7.1l25.706-57.278C93.251,19.313,91.712,14.699,89.912,11.968z"/><path fill="#70bfff" d="M49.974,86.447c-2.176,0-3.96-0.495-5.353-1.482c-1.394-0.988-2.533-2.505-3.416-4.55 l-25.693-57.25c-1.36-3.067-1.343-5.605,0.051-7.617c1.392-2.009,3.517-3.016,6.372-3.016c2.31,0,4.06,0.53,5.251,1.586 c1.189,1.057,2.226,2.606,3.11,4.651L50.28,65.183l19.984-46.516c0.816-1.976,1.851-3.491,3.109-4.549 c1.257-1.056,2.973-1.586,5.149-1.586c2.651,0,4.639,1.007,5.965,3.016c1.326,2.012,1.308,4.55-0.051,7.617l-25.693,57.25 c-0.953,2.044-2.09,3.562-3.416,4.55C54.002,85.951,52.217,86.447,49.974,86.447z"/><path fill="#40396e" d="M49.975,87.947c-2.48,0-4.573-0.592-6.22-1.759c-1.615-1.145-2.936-2.887-3.925-5.179 l-25.685-57.23c-1.583-3.569-1.519-6.624,0.187-9.086c1.684-2.43,4.242-3.661,7.605-3.661c2.677,0,4.779,0.661,6.247,1.964 c1.35,1.2,2.524,2.942,3.491,5.179l18.605,43.211l18.606-43.311c0.897-2.174,2.085-3.898,3.523-5.105 c1.53-1.285,3.587-1.938,6.114-1.938c3.173,0,5.601,1.241,7.216,3.689c1.618,2.456,1.641,5.501,0.068,9.051L60.111,81.029 c-1.064,2.284-2.37,4.006-3.888,5.138C54.636,87.349,52.534,87.947,49.975,87.947z M21.936,14.032 c-2.353,0-4.034,0.775-5.139,2.37c-1.084,1.564-1.056,3.578,0.087,6.154l25.691,57.244c0.777,1.799,1.755,3.118,2.915,3.94 c1.129,0.8,2.639,1.206,4.485,1.206c1.9,0,3.399-0.399,4.457-1.186c1.115-0.831,2.108-2.171,2.952-3.98l25.684-57.23 c1.146-2.586,1.201-4.608,0.167-6.178c-1.04-1.575-2.581-2.341-4.712-2.341c-1.802,0-3.21,0.415-4.185,1.234 c-1.064,0.894-1.968,2.23-2.688,3.973L51.659,65.774c-0.237,0.551-0.778,0.908-1.378,0.908h0c-0.599,0-1.141-0.356-1.378-0.907 L28.918,19.362c-0.791-1.829-1.709-3.217-2.729-4.123C25.288,14.438,23.857,14.032,21.936,14.032z"/></svg>