<svg xmlns="http://www.w3.org/2000/svg" width="200" height="200">

    <!-- pie chart -->
    <!-- M: coordinates of the starting point of the path -->
    <!-- L: coordinate of the end point of a straight line -->
    <!-- A: the radii length, flags and end point of an arc -->
    <!-- Z: return to start point (M) -->

    <!-- green (strong: 96ff2D, weak: ccff99) -->
    <!-- orange (strong: ffcb2e, weak: ffdf99) -->
    <!-- red (strong: ff2e2e, weak: ff9999) -->

    <path d="M100,100 L100,8 A92,92 0 0,1 179.7,146 L100,100, Z" fill="#ff2e2e" stroke="white" stroke-width="12"></path>
    <path d="M100,100 L179.7,146 A92,92 0 0,1 20.3,146 L100,100, Z" fill="#ffcb2e" stroke="white" stroke-width="12"></path>
    <path d="M100,100 L20.3,146 A92,92 0 0,1 100,8 L100,100, Z" fill="#96ff2D" stroke="white" stroke-width="12"></path>

    <!-- wavy lines (in green segment) -->
    <path d="M30,70 Q35,56 35,60 T40,60" fill="none" stroke="black" stroke-width="4"></path>
    <path d="M40,60 Q45,56 45,60 T50,60" fill="none" stroke="black" stroke-width="4"></path>
    <path d="M50,60 Q55,56 55,60 T60,60" fill="none" stroke="black" stroke-width="4"></path>
    <path d="M60,60 Q65,56 65,60 T70,60" fill="none" stroke="black" stroke-width="4"></path>
    <path d="M70,60 Q75,56 75,60 T80,60" fill="none" stroke="black" stroke-width="4"></path>

    <path d="M45,85 Q50,81 50,85 T55,85" fill="none" stroke="black" stroke-width="4"></path>
    <path d="M55,85 Q60,81 60,85 T65,85" fill="none" stroke="black" stroke-width="4"></path>

    <!-- wavy lines (in red segment) -->
    <path d="M120,60 Q125,56 125,60 T130,60" fill="none" stroke="black" stroke-width="4"></path>
    <path d="M130,60 Q135,56 135,60 T140,60" fill="none" stroke="black" stroke-width="4"></path>
    <path d="M140,60 Q145,56 145,60 T150,60" fill="none" stroke="black" stroke-width="4"></path>
    <path d="M150,60 Q155,56 155,60 T160,60" fill="none" stroke="black" stroke-width="4"></path>
    <path d="M160,60 Q165,56 165,60 T170,70" fill="none" stroke="black" stroke-width="4"></path>

    <path d="M135,85 Q140,81 140,85 T145,85" fill="none" stroke="black" stroke-width="4"></path>
    <path d="M145,85 Q150,81 150,85 T155,85" fill="none" stroke="black" stroke-width="4"></path>

    <!-- wavy lines (in orange segment) -->
    <path d="M75,150 Q80,156 80,160 T85,160" fill="none" stroke="black" stroke-width="4"></path>
    <path d="M85,160 Q90,156 90,160 T95,160" fill="none" stroke="black" stroke-width="4"></path>
    <path d="M95,160 Q100,156 100,160 T105,160" fill="none" stroke="black" stroke-width="4"></path>
    <path d="M105,160 Q110,156 110,160 T115,160" fill="none" stroke="black" stroke-width="4"></path>
    <path d="M115,160 Q120,156 120,160 T125,150" fill="none" stroke="black" stroke-width="4"></path>
</svg>
